# xmcd CD database file
#
# Track frame offsets:
#	150
#	75114
#	143981
#	193483
#	266739
#
# Disc length: 4296 seconds
#
# Revision: 0
# Processed by: cddbd v1.5.2PL0 Copyright (c) Steve Scherf et al.
# Submitted via: CDex 1.51
#
DISCID=4210c605
DTITLE=Sonny Rollins - Without A Song
DYEAR=2001
DGENRE=Jazz
TTITLE0=Without A Song
TTITLE1=Global Warming
TTITLE2=A Nightingale Sang In Berkeley Square
TTITLE3=Why Was I Born
TTITLE4=Where or When
EXTD=YEAR: 2001
EXTT0=
EXTT1=
EXTT2=
EXTT3=
EXTT4=
PLAYORDER=
